<?xml version="1.0" encoding="UTF-8" standalone="no"?><!DOCTYPE svg PUBLIC "-//W3C//DTD SVG 1.1//EN" "http://www.w3.org/Graphics/SVG/1.1/DTD/svg11.dtd"><svg width="100%" height="100%" viewBox="0 0 2124 282" version="1.1" xmlns="http://www.w3.org/2000/svg" xmlns:xlink="http://www.w3.org/1999/xlink" xml:space="preserve" xmlns:serif="http://www.serif.com/" style="fill-rule:evenodd;clip-rule:evenodd;stroke-linecap:round;stroke-linejoin:round;stroke-miterlimit:1.5;"><g id="paqman_v8_coding"><g id="v1"><path d="M293.269,190.846l88.354,0" style="fill:none;stroke:#fcc922;stroke-width:21.87px;"/><path d="M232.626,264.742l102.812,-250.913l106.828,250.913" style="fill:none;stroke:#fcc922;stroke-width:21.87px;"/><path d="M878.316,264.407l0,-253.47l109.49,253.47l109.187,-253.47l0,253.47" style="fill:none;stroke:#fcc922;stroke-width:21.87px;"/><path d="M746.606,245.522l27.016,24.897" style="fill:none;stroke:#fcc922;stroke-width:21.87px;"/><path d="M682.024,187.688l43.739,38.944" style="fill:none;stroke:#fcc922;stroke-width:21.87px;"/><path d="M293.269,190.846l88.354,0" style="fill:none;stroke:#fcc922;stroke-width:21.87px;"/><path d="M10.938,14.941l0,249.801" style="fill:none;stroke:#fcc922;stroke-width:21.87px;"/><path d="M44.673,14.941c0,0 114.047,-15.675 118.073,70.683c3.708,79.555 -118.073,65.061 -118.073,65.061" style="fill:none;stroke:#fcc922;stroke-width:21.87px;"/><path d="M232.626,264.742l102.812,-250.913l106.828,250.913" style="fill:none;stroke:#fcc922;stroke-width:21.87px;"/><path d="M1252.11,190.846l88.354,0" style="fill:none;stroke:#fcc922;stroke-width:21.87px;"/><path d="M1191.47,264.742l102.812,-250.913l106.828,250.913" style="fill:none;stroke:#fcc922;stroke-width:21.87px;"/><path d="M1401.11,264.742l95.511,-0.335l0,-253.47l182.492,253.805l0,-253.805" style="fill:none;stroke:#fcc922;stroke-width:21.87px;"/><ellipse cx="639.547" cy="139.301" rx="121.664" ry="125.472" style="fill:none;stroke:#fcc922;stroke-width:21.88px;"/></g><g id="Command-Line" serif:id="Command Line"><g id="Frame"><path d="M2120.05,30.641c0,-6.495 -2.58,-12.725 -7.173,-17.317c-4.593,-4.593 -10.822,-7.173 -17.317,-7.173c-62.401,0 -226.498,0 -284.057,0c-11.214,0 -20.305,9.09 -20.305,20.304c0,11.239 0,22.957 0,22.957l328.852,0l0,-18.771Z" style="fill:#2f2f2f;"/><path d="M2120.05,29.017c0,-12.629 -10.238,-22.866 -22.866,-22.866c-60.253,0 -222.867,0 -283.119,0c-6.065,0 -11.881,2.409 -16.169,6.697c-4.288,4.288 -6.698,10.104 -6.698,16.169l0,223.323c0,6.064 2.41,11.88 6.698,16.169c4.288,4.288 10.104,6.697 16.169,6.697c60.252,0 222.866,0 283.119,0c12.628,0 22.866,-10.238 22.866,-22.866c0,-50.794 0,-172.53 0,-223.323Z" style="fill:none;stroke:#2f2f2f;stroke-width:6.25px;"/></g><g id="Command"><path d="M1859.16,125.655c-0.942,-0.781 -1.514,-1.919 -1.579,-3.14c-0.066,-1.222 0.382,-2.415 1.235,-3.291c0.588,-0.604 1.195,-1.228 1.768,-1.817c1.598,-1.643 4.192,-1.777 5.951,-0.308c8.953,7.473 34.642,28.92 43.25,36.106c0.706,0.589 1.114,1.46 1.114,2.379c0,0.919 -0.408,1.791 -1.114,2.38c-8.612,7.19 -34.324,28.655 -43.264,36.118c-1.753,1.463 -4.337,1.336 -5.937,-0.294c-0.56,-0.57 -1.152,-1.173 -1.726,-1.758c-0.861,-0.877 -1.315,-2.075 -1.25,-3.303c0.065,-1.227 0.642,-2.37 1.59,-3.152c9.888,-8.146 36.226,-29.844 36.226,-29.844c0,0 -26.406,-21.9 -36.264,-30.076Z" style="fill:#2f2f2f;fill-rule:nonzero;"/><path d="M1989.58,193.449c0,-1.65 -1.338,-2.988 -2.988,-2.988c-11.213,0 -50.717,0 -61.93,0c-1.65,0 -2.988,1.338 -2.988,2.988c0,0.055 0,0.111 0,0.167c0,2.261 0.899,4.429 2.497,6.028c1.599,1.598 3.767,2.497 6.028,2.497c13.044,0 37.812,0 50.856,0c2.261,0 4.429,-0.899 6.028,-2.497c1.599,-1.599 2.497,-3.767 2.497,-6.028c0,-0.056 0,-0.112 0,-0.167Z" style="fill:#2f2f2f;"/></g><g id="Gear"><path d="M2011.87,139.831l-4.282,-9.492l8.821,-8.543l9.349,4.585l4.732,-2.007l3.527,-9.798l12.28,0l3.527,9.798l5.738,2.338l9.495,-4.274l8.535,8.829l-4.592,9.345l2.002,4.733l9.795,3.536l-0.011,12.28l-9.801,3.518l-2.316,5.685l4.283,9.492l-8.821,8.542l-9.35,-4.584l-4.731,2.007l-3.527,9.798l-12.28,0l-3.527,-9.798l-5.738,-2.338l-9.496,4.274l-8.535,-8.829l4.593,-9.345l-2.003,-4.733l-9.794,-3.537l0.011,-12.279l9.801,-3.518l2.315,-5.685Z" style="fill:none;stroke:#2f2f2f;stroke-width:6.25px;"/><circle cx="2040.27" cy="155.097" r="20.016" style="fill:none;stroke:#2f2f2f;stroke-width:6.25px;"/></g></g></g></svg>