<?xml version="1.0" encoding="UTF-8" standalone="no"?><!DOCTYPE svg PUBLIC "-//W3C//DTD SVG 1.1//EN" "http://www.w3.org/Graphics/SVG/1.1/DTD/svg11.dtd"><svg width="100%" height="100%" viewBox="0 0 2124 432" version="1.1" xmlns="http://www.w3.org/2000/svg" xmlns:xlink="http://www.w3.org/1999/xlink" xml:space="preserve" xmlns:serif="http://www.serif.com/" style="fill-rule:evenodd;clip-rule:evenodd;stroke-linecap:round;stroke-linejoin:round;stroke-miterlimit:1.5;"><g id="paqman_v8_coding"><g><path d="M2.021,407.724l0,-76.282l31.372,0c3.223,0 6.178,0.68 8.864,2.041c2.686,1.361 5.032,3.17 7.037,5.426c2.006,2.256 3.563,4.781 4.674,7.574c1.11,2.794 1.665,5.659 1.665,8.596c0,4.082 -0.913,7.932 -2.74,11.549c-1.826,3.617 -4.333,6.572 -7.52,8.864c-3.188,2.292 -6.966,3.438 -11.335,3.438l-26.538,0l0,28.794l-5.479,0Zm5.479,-33.844l26.323,0c3.366,0 6.267,-0.895 8.702,-2.686c2.436,-1.79 4.298,-4.118 5.587,-6.983c1.29,-2.865 1.934,-5.909 1.934,-9.132c0,-3.367 -0.77,-6.465 -2.31,-9.294c-1.54,-2.829 -3.581,-5.103 -6.124,-6.822c-2.543,-1.719 -5.354,-2.579 -8.434,-2.579l-25.678,0l0,37.496Z" style="fill:#2f2f2f;fill-rule:nonzero;"/><path d="M61.972,391.663c0,-3.356 1.003,-6.266 3.008,-8.729c2.006,-2.463 4.763,-4.391 8.273,-5.783c3.51,-1.393 7.557,-2.089 12.141,-2.089c2.865,0 5.837,0.251 8.917,0.752c3.08,0.502 5.838,1.182 8.273,2.042l0,-5.251c0,-5.128 -1.486,-9.224 -4.459,-12.287c-2.972,-3.063 -7.073,-4.595 -12.301,-4.595c-2.794,0 -5.695,0.573 -8.703,1.719c-3.008,1.146 -6.088,2.794 -9.24,4.942l-2.256,-3.867c3.653,-2.436 7.18,-4.28 10.583,-5.534c3.402,-1.253 6.786,-1.88 10.153,-1.88c6.661,0 11.926,1.962 15.793,5.885c3.868,3.923 5.802,9.273 5.802,16.05l0,27.607c0,0.855 0.197,1.496 0.591,1.924c0.394,0.428 0.985,0.678 1.773,0.75l0,4.405c-0.645,0.072 -1.182,0.107 -1.612,0.107c-0.43,0 -0.788,0 -1.074,0c-1.361,-0.215 -2.418,-0.788 -3.17,-1.719c-0.752,-0.931 -1.164,-1.969 -1.235,-3.115l0,-4.405c-2.579,3.223 -5.891,5.73 -9.938,7.52c-4.047,1.791 -8.291,2.686 -12.732,2.686c-3.51,0 -6.679,-0.749 -9.508,-2.248c-2.83,-1.499 -5.05,-3.552 -6.662,-6.159c-1.611,-2.606 -2.417,-5.516 -2.417,-8.728Zm38.463,4.6c0.717,-0.928 1.254,-1.819 1.612,-2.675c0.358,-0.856 0.537,-1.64 0.537,-2.354l0,-9.202c-2.578,-0.998 -5.264,-1.747 -8.058,-2.246c-2.793,-0.499 -5.658,-0.748 -8.595,-0.748c-5.587,0 -10.117,1.105 -13.591,3.316c-3.474,2.211 -5.211,5.207 -5.211,8.987c0,2.354 0.609,4.529 1.827,6.526c1.217,1.997 2.918,3.602 5.103,4.815c2.185,1.212 4.709,1.819 7.574,1.819c4.011,0 7.718,-0.767 11.12,-2.3c3.403,-1.533 5.963,-3.513 7.682,-5.938Z" style="fill:#2f2f2f;fill-rule:nonzero;"/><path d="M150.717,356.69c-5.014,0.143 -9.401,1.63 -13.161,4.459c-3.761,2.829 -6.393,6.715 -7.897,11.657l0,34.918l-5.372,0l0,-55.761l5.157,0l0,13.645c1.934,-3.94 4.513,-7.145 7.736,-9.616c3.223,-2.471 6.625,-3.886 10.206,-4.244c0.717,-0.072 1.361,-0.108 1.934,-0.108l1.397,0l0,5.05Z" style="fill:#2f2f2f;fill-rule:nonzero;"/><path d="M155.874,391.663c0,-3.356 1.003,-6.266 3.009,-8.729c2.005,-2.463 4.763,-4.391 8.272,-5.783c3.51,-1.393 7.557,-2.089 12.141,-2.089c2.865,0 5.838,0.251 8.918,0.752c3.079,0.502 5.837,1.182 8.272,2.042l0,-5.251c0,-5.128 -1.486,-9.224 -4.458,-12.287c-2.973,-3.063 -7.073,-4.595 -12.302,-4.595c-2.794,0 -5.694,0.573 -8.703,1.719c-3.008,1.146 -6.088,2.794 -9.24,4.942l-2.256,-3.867c3.653,-2.436 7.181,-4.28 10.583,-5.534c3.402,-1.253 6.787,-1.88 10.153,-1.88c6.661,0 11.926,1.962 15.794,5.885c3.867,3.923 5.801,9.273 5.801,16.05l0,27.607c0,0.855 0.197,1.496 0.591,1.924c0.394,0.428 0.985,0.678 1.773,0.75l0,4.405c-0.645,0.072 -1.182,0.107 -1.612,0.107c-0.429,0 -0.787,0 -1.074,0c-1.361,-0.215 -2.417,-0.788 -3.169,-1.719c-0.752,-0.931 -1.164,-1.969 -1.236,-3.115l0,-4.405c-2.579,3.223 -5.891,5.73 -9.938,7.52c-4.047,1.791 -8.291,2.686 -12.732,2.686c-3.509,0 -6.679,-0.749 -9.508,-2.248c-2.829,-1.499 -5.05,-3.552 -6.661,-6.159c-1.612,-2.606 -2.418,-5.516 -2.418,-8.728Zm38.464,4.6c0.716,-0.928 1.253,-1.819 1.611,-2.675c0.358,-0.856 0.537,-1.64 0.537,-2.354l0,-9.202c-2.578,-0.998 -5.264,-1.747 -8.058,-2.246c-2.793,-0.499 -5.658,-0.748 -8.595,-0.748c-5.587,0 -10.117,1.105 -13.591,3.316c-3.474,2.211 -5.211,5.207 -5.211,8.987c0,2.354 0.609,4.529 1.827,6.526c1.217,1.997 2.919,3.602 5.103,4.815c2.185,1.212 4.71,1.819 7.575,1.819c4.011,0 7.717,-0.767 11.12,-2.3c3.402,-1.533 5.963,-3.513 7.682,-5.938Z" style="fill:#2f2f2f;fill-rule:nonzero;"/><path d="M300.273,407.724l-5.372,0l0,-31.028c0,-7.062 -1.092,-12.269 -3.277,-15.622c-2.184,-3.352 -5.533,-5.029 -10.045,-5.029c-4.585,0 -8.649,1.623 -12.195,4.869c-3.545,3.245 -6.034,7.4 -7.467,12.465l0,34.345l-5.372,0l0,-31.028c0,-7.134 -1.074,-12.359 -3.223,-15.676c-2.149,-3.316 -5.479,-4.975 -9.992,-4.975c-4.584,0 -8.649,1.586 -12.194,4.758c-3.546,3.172 -6.071,7.324 -7.575,12.456l0,34.465l-5.372,0l0,-55.761l5.05,0l0,13.376c2.364,-4.567 5.408,-8.082 9.132,-10.543c3.725,-2.462 7.808,-3.693 12.248,-3.693c4.656,0 8.47,1.374 11.443,4.121c2.972,2.747 4.745,6.404 5.318,10.971c2.65,-4.995 5.802,-8.759 9.455,-11.292c3.653,-2.533 7.807,-3.8 12.463,-3.8c3.08,0 5.676,0.553 7.789,1.659c2.113,1.106 3.868,2.711 5.265,4.816c1.396,2.105 2.399,4.692 3.008,7.76c0.609,3.068 0.913,6.529 0.913,10.382l0,32.004Z" style="fill:#2f2f2f;fill-rule:nonzero;"/><path d="M340.241,408.798c-3.94,0 -7.593,-0.767 -10.959,-2.301c-3.367,-1.535 -6.285,-3.64 -8.757,-6.316c-2.471,-2.676 -4.405,-5.78 -5.801,-9.312c-1.397,-3.533 -2.095,-7.262 -2.095,-11.187c0,-5.28 1.181,-10.061 3.545,-14.342c2.364,-4.282 5.623,-7.725 9.777,-10.329c4.154,-2.605 8.81,-3.908 13.967,-3.908c5.301,0 9.992,1.321 14.075,3.962c4.083,2.641 7.324,6.121 9.723,10.439c2.4,4.319 3.599,9.047 3.599,14.187l0,1.285c0,0.428 -0.035,0.784 -0.107,1.07l-48.992,0c0.286,4.206 1.468,8.02 3.545,11.441c2.077,3.422 4.745,6.113 8.004,8.073c3.259,1.961 6.823,2.941 10.691,2.941c3.867,0 7.52,-1.003 10.958,-3.009c3.438,-2.005 5.838,-4.584 7.199,-7.735l4.727,1.289c-1.074,2.65 -2.775,5.014 -5.103,7.091c-2.328,2.077 -5.05,3.707 -8.166,4.889c-3.115,1.181 -6.392,1.772 -9.83,1.772Zm-22.24,-30.942l44.157,0c-0.286,-4.348 -1.432,-8.198 -3.438,-11.548c-2.005,-3.351 -4.638,-5.989 -7.897,-7.913c-3.259,-1.925 -6.858,-2.887 -10.797,-2.887c-3.94,0 -7.521,0.962 -10.744,2.887c-3.223,1.924 -5.838,4.562 -7.843,7.913c-2.006,3.35 -3.152,7.2 -3.438,11.548Z" style="fill:#2f2f2f;fill-rule:nonzero;"/><path d="M403.63,405.468c-0.358,0.143 -1.074,0.501 -2.149,1.074c-1.074,0.573 -2.435,1.092 -4.082,1.558c-1.648,0.466 -3.474,0.698 -5.48,0.698c-1.934,0 -3.742,-0.378 -5.426,-1.134c-1.683,-0.757 -3.026,-1.892 -4.029,-3.406c-1.002,-1.513 -1.504,-3.351 -1.504,-5.514l0,-42.376l-7.843,0l0,-4.405l7.843,0l0,-19.124l5.372,0l0,19.124l13,0l0,4.405l-13,0l0,41.107c0.143,2.091 0.896,3.659 2.256,4.705c1.361,1.046 2.937,1.569 4.728,1.569c2.22,0 4.154,-0.376 5.802,-1.128c1.647,-0.753 2.614,-1.236 2.9,-1.451l1.612,4.298Z" style="fill:#2f2f2f;fill-rule:nonzero;"/><path d="M435.754,408.798c-3.939,0 -7.592,-0.767 -10.958,-2.301c-3.367,-1.535 -6.286,-3.64 -8.757,-6.316c-2.471,-2.676 -4.405,-5.78 -5.801,-9.312c-1.397,-3.533 -2.096,-7.262 -2.096,-11.187c0,-5.28 1.182,-10.061 3.546,-14.342c2.364,-4.282 5.623,-7.725 9.777,-10.329c4.154,-2.605 8.81,-3.908 13.967,-3.908c5.301,0 9.992,1.321 14.075,3.962c4.082,2.641 7.324,6.121 9.723,10.439c2.4,4.319 3.599,9.047 3.599,14.187l0,1.285c0,0.428 -0.036,0.784 -0.107,1.07l-48.993,0c0.287,4.206 1.469,8.02 3.546,11.441c2.077,3.422 4.745,6.113 8.004,8.073c3.259,1.961 6.823,2.941 10.69,2.941c3.868,0 7.521,-1.003 10.959,-3.009c3.438,-2.005 5.838,-4.584 7.199,-7.735l4.727,1.289c-1.074,2.65 -2.776,5.014 -5.103,7.091c-2.328,2.077 -5.05,3.707 -8.166,4.889c-3.116,1.181 -6.392,1.772 -9.831,1.772Zm-22.24,-30.942l44.158,0c-0.286,-4.348 -1.432,-8.198 -3.438,-11.548c-2.005,-3.351 -4.638,-5.989 -7.897,-7.913c-3.259,-1.925 -6.858,-2.887 -10.797,-2.887c-3.94,0 -7.521,0.962 -10.744,2.887c-3.224,1.924 -5.838,4.562 -7.843,7.913c-2.006,3.35 -3.152,7.2 -3.439,11.548Z" style="fill:#2f2f2f;fill-rule:nonzero;"/><path d="M501.078,356.69c-5.014,0.143 -9.401,1.63 -13.162,4.459c-3.76,2.829 -6.392,6.715 -7.896,11.657l0,34.918l-5.372,0l0,-55.761l5.157,0l0,13.645c1.934,-3.94 4.512,-7.145 7.735,-9.616c3.224,-2.471 6.626,-3.886 10.207,-4.244c0.716,-0.072 1.361,-0.108 1.934,-0.108l1.397,0l0,5.05Z" style="fill:#2f2f2f;fill-rule:nonzero;"/><path d="M568.335,408.261c-5.3,0 -10.135,-1.092 -14.504,-3.277c-4.37,-2.184 -8.13,-5.103 -11.282,-8.756c-3.151,-3.653 -5.586,-7.789 -7.305,-12.409c-1.719,-4.62 -2.579,-9.366 -2.579,-14.236c0,-5.086 0.895,-9.938 2.686,-14.558c1.791,-4.62 4.316,-8.739 7.575,-12.356c3.259,-3.617 7.055,-6.482 11.388,-8.595c4.334,-2.113 9.043,-3.169 14.128,-3.169c5.372,0 10.225,1.11 14.559,3.33c4.333,2.221 8.075,5.193 11.227,8.918c3.152,3.724 5.587,7.879 7.306,12.463c1.719,4.584 2.578,9.24 2.578,13.967c0,5.157 -0.895,10.045 -2.686,14.665c-1.79,4.62 -4.315,8.739 -7.574,12.356c-3.259,3.617 -7.055,6.464 -11.389,8.541c-4.333,2.078 -9.043,3.116 -14.128,3.116Zm0.107,-5.05c4.513,0 8.631,-0.966 12.356,-2.9c3.725,-1.934 6.912,-4.513 9.562,-7.736c2.65,-3.223 4.674,-6.822 6.07,-10.798c1.397,-3.975 2.096,-8.04 2.096,-12.194c0,-4.369 -0.735,-8.559 -2.203,-12.571c-1.468,-4.011 -3.563,-7.592 -6.285,-10.744c-2.722,-3.151 -5.927,-5.658 -9.616,-7.52c-3.689,-1.863 -7.682,-2.794 -11.98,-2.794c-4.584,0 -8.738,0.967 -12.463,2.901c-3.724,1.934 -6.894,4.513 -9.508,7.736c-2.614,3.223 -4.656,6.822 -6.124,10.797c-1.468,3.976 -2.203,8.041 -2.203,12.195c0,4.369 0.753,8.559 2.257,12.57c1.504,4.011 3.599,7.593 6.285,10.744c2.686,3.152 5.873,5.659 9.562,7.521c3.689,1.862 7.754,2.793 12.194,2.793Zm9.025,-17.62l5.695,0l18.372,22.133l-5.694,0l-18.373,-22.133Z" style="fill:#2f2f2f;fill-rule:nonzero;"/><path d="M616.575,384.134l0,-32.171l5.372,0l0,31.414c0,6.934 1.164,12.099 3.492,15.494c2.328,3.395 5.856,5.093 10.583,5.093c3.152,0 6.178,-0.697 9.079,-2.09c2.9,-1.394 5.461,-3.359 7.682,-5.895c2.22,-2.537 3.867,-5.485 4.942,-8.843l0,-35.173l5.372,0l0,48.675c0,0.858 0.197,1.502 0.591,1.931c0.394,0.428 0.949,0.678 1.665,0.75l0,4.405c-0.716,0.072 -1.271,0.107 -1.665,0.107c-0.394,0 -0.734,-0.035 -1.021,-0.107c-1.218,-0.143 -2.22,-0.661 -3.008,-1.555c-0.788,-0.893 -1.218,-1.983 -1.29,-3.27l-0.107,-8.363c-2.435,4.433 -5.784,7.918 -10.046,10.456c-4.261,2.537 -8.863,3.806 -13.806,3.806c-5.873,0 -10.314,-2.073 -13.322,-6.219c-3.008,-4.147 -4.513,-10.295 -4.513,-18.445Z" style="fill:#2f2f2f;fill-rule:nonzero;"/><path d="M703.924,408.798c-3.94,0 -7.593,-0.767 -10.959,-2.301c-3.366,-1.535 -6.285,-3.64 -8.756,-6.316c-2.471,-2.676 -4.405,-5.78 -5.802,-9.312c-1.397,-3.533 -2.095,-7.262 -2.095,-11.187c0,-5.28 1.182,-10.061 3.545,-14.342c2.364,-4.282 5.623,-7.725 9.777,-10.329c4.155,-2.605 8.81,-3.908 13.968,-3.908c5.3,0 9.991,1.321 14.074,3.962c4.083,2.641 7.324,6.121 9.723,10.439c2.4,4.319 3.6,9.047 3.6,14.187l0,1.285c0,0.428 -0.036,0.784 -0.108,1.07l-48.992,0c0.286,4.206 1.468,8.02 3.545,11.441c2.077,3.422 4.745,6.113 8.004,8.073c3.259,1.961 6.823,2.941 10.691,2.941c3.868,0 7.52,-1.003 10.959,-3.009c3.438,-2.005 5.837,-4.584 7.198,-7.735l4.727,1.289c-1.074,2.65 -2.775,5.014 -5.103,7.091c-2.328,2.077 -5.05,3.707 -8.165,4.889c-3.116,1.181 -6.393,1.772 -9.831,1.772Zm-22.24,-30.942l44.158,0c-0.287,-4.348 -1.433,-8.198 -3.439,-11.548c-2.005,-3.351 -4.637,-5.989 -7.896,-7.913c-3.259,-1.925 -6.859,-2.887 -10.798,-2.887c-3.94,0 -7.521,0.962 -10.744,2.887c-3.223,1.924 -5.838,4.562 -7.843,7.913c-2.006,3.35 -3.152,7.2 -3.438,11.548Z" style="fill:#2f2f2f;fill-rule:nonzero;"/><path d="M769.247,356.69c-5.014,0.143 -9.401,1.63 -13.161,4.459c-3.761,2.829 -6.393,6.715 -7.897,11.657l0,34.918l-5.372,0l0,-55.761l5.157,0l0,13.645c1.934,-3.94 4.513,-7.145 7.736,-9.616c3.223,-2.471 6.625,-3.886 10.207,-4.244c0.716,-0.072 1.36,-0.108 1.933,-0.108l1.397,0l0,5.05Z" style="fill:#2f2f2f;fill-rule:nonzero;"/><path d="M783.214,426.633c1.146,0.072 2.167,0.09 3.062,0.054c0.896,-0.036 1.558,-0.197 1.988,-0.483c0.645,-0.214 1.307,-0.768 1.988,-1.662c0.68,-0.895 1.593,-2.647 2.739,-5.257c1.146,-2.609 2.758,-6.453 4.835,-11.529l-24.926,-55.793l5.694,0l22.133,50.107l20.521,-50.107l5.479,0l-30.62,73.389c-0.43,1.145 -1.021,2.165 -1.773,3.058c-0.752,0.894 -1.665,1.609 -2.739,2.146c-1.075,0.536 -2.364,0.84 -3.868,0.912c-0.645,0.072 -1.325,0.125 -2.042,0.161c-0.716,0.036 -1.54,0.018 -2.471,-0.053l0,-4.943Z" style="fill:#2f2f2f;fill-rule:nonzero;"/><path d="M932.878,407.724l0,-65.646l-29.976,51.356l-3.653,0l-29.976,-51.356l0,65.646l-5.479,0l0,-76.282l5.479,0l31.803,54.579l31.802,-54.579l5.479,0l0,76.282l-5.479,0Z" style="fill:#2f2f2f;fill-rule:nonzero;"/><path d="M951.572,391.663c0,-3.356 1.003,-6.266 3.009,-8.729c2.005,-2.463 4.763,-4.391 8.272,-5.783c3.51,-1.393 7.557,-2.089 12.141,-2.089c2.865,0 5.838,0.251 8.918,0.752c3.079,0.502 5.837,1.182 8.272,2.042l0,-5.251c0,-5.128 -1.486,-9.224 -4.458,-12.287c-2.973,-3.063 -7.073,-4.595 -12.302,-4.595c-2.794,0 -5.694,0.573 -8.703,1.719c-3.008,1.146 -6.088,2.794 -9.24,4.942l-2.256,-3.867c3.653,-2.436 7.181,-4.28 10.583,-5.534c3.402,-1.253 6.787,-1.88 10.153,-1.88c6.661,0 11.926,1.962 15.794,5.885c3.867,3.923 5.801,9.273 5.801,16.05l0,27.607c0,0.855 0.197,1.496 0.591,1.924c0.394,0.428 0.985,0.678 1.773,0.75l0,4.405c-0.645,0.072 -1.182,0.107 -1.612,0.107c-0.429,0 -0.787,0 -1.074,0c-1.361,-0.215 -2.417,-0.788 -3.169,-1.719c-0.752,-0.931 -1.164,-1.969 -1.236,-3.115l0,-4.405c-2.579,3.223 -5.891,5.73 -9.938,7.52c-4.047,1.791 -8.291,2.686 -12.732,2.686c-3.509,0 -6.679,-0.749 -9.508,-2.248c-2.829,-1.499 -5.05,-3.552 -6.661,-6.159c-1.612,-2.606 -2.418,-5.516 -2.418,-8.728Zm38.464,4.6c0.716,-0.928 1.253,-1.819 1.611,-2.675c0.358,-0.856 0.537,-1.64 0.537,-2.354l0,-9.202c-2.578,-0.998 -5.264,-1.747 -8.058,-2.246c-2.793,-0.499 -5.658,-0.748 -8.595,-0.748c-5.587,0 -10.117,1.105 -13.591,3.316c-3.474,2.211 -5.211,5.207 -5.211,8.987c0,2.354 0.609,4.529 1.827,6.526c1.217,1.997 2.919,3.602 5.103,4.815c2.185,1.212 4.71,1.819 7.575,1.819c4.011,0 7.717,-0.767 11.12,-2.3c3.402,-1.533 5.963,-3.513 7.682,-5.938Z" style="fill:#2f2f2f;fill-rule:nonzero;"/><path d="M1059.55,407.724l-5.372,0l0,-31.028c0,-7.134 -1.021,-12.359 -3.062,-15.676c-2.041,-3.316 -5.282,-4.975 -9.723,-4.975c-3.152,0 -6.25,0.749 -9.294,2.246c-3.044,1.497 -5.694,3.546 -7.95,6.147c-2.257,2.602 -3.886,5.542 -4.889,8.821l0,34.465l-5.372,0l0,-55.761l5.05,0l0,13.376c1.504,-2.854 3.51,-5.333 6.016,-7.439c2.507,-2.105 5.301,-3.764 8.381,-4.977c3.08,-1.213 6.267,-1.82 9.562,-1.82c3.08,0 5.676,0.553 7.789,1.659c2.113,1.106 3.832,2.693 5.157,4.762c1.325,2.07 2.275,4.639 2.848,7.708c0.573,3.068 0.859,6.565 0.859,10.488l0,32.004Z" style="fill:#2f2f2f;fill-rule:nonzero;"/><path d="M1075.24,384.134l0,-32.171l5.372,0l0,31.414c0,6.934 1.164,12.099 3.492,15.494c2.328,3.395 5.855,5.093 10.583,5.093c3.151,0 6.178,-0.697 9.078,-2.09c2.901,-1.394 5.462,-3.359 7.682,-5.895c2.221,-2.537 3.868,-5.485 4.943,-8.843l0,-35.173l5.372,0l0,48.675c0,0.858 0.197,1.502 0.591,1.931c0.393,0.428 0.949,0.678 1.665,0.75l0,4.405c-0.716,0.072 -1.272,0.107 -1.665,0.107c-0.394,0 -0.735,-0.035 -1.021,-0.107c-1.218,-0.143 -2.221,-0.661 -3.008,-1.555c-0.788,-0.893 -1.218,-1.983 -1.29,-3.27l-0.107,-8.363c-2.435,4.433 -5.784,7.918 -10.046,10.456c-4.262,2.537 -8.864,3.806 -13.806,3.806c-5.873,0 -10.314,-2.073 -13.322,-6.219c-3.009,-4.147 -4.513,-10.295 -4.513,-18.445Z" style="fill:#2f2f2f;fill-rule:nonzero;"/><path d="M1134.22,391.663c0,-3.356 1.002,-6.266 3.008,-8.729c2.005,-2.463 4.763,-4.391 8.273,-5.783c3.509,-1.393 7.556,-2.089 12.14,-2.089c2.866,0 5.838,0.251 8.918,0.752c3.08,0.502 5.837,1.182 8.273,2.042l0,-5.251c0,-5.128 -1.486,-9.224 -4.459,-12.287c-2.972,-3.063 -7.073,-4.595 -12.302,-4.595c-2.793,0 -5.694,0.573 -8.702,1.719c-3.009,1.146 -6.089,2.794 -9.24,4.942l-2.256,-3.867c3.652,-2.436 7.18,-4.28 10.582,-5.534c3.403,-1.253 6.787,-1.88 10.153,-1.88c6.662,0 11.926,1.962 15.794,5.885c3.868,3.923 5.802,9.273 5.802,16.05l0,27.607c0,0.855 0.197,1.496 0.591,1.924c0.394,0.428 0.985,0.678 1.772,0.75l0,4.405c-0.644,0.072 -1.181,0.107 -1.611,0.107c-0.43,0 -0.788,0 -1.075,0c-1.36,-0.215 -2.417,-0.788 -3.169,-1.719c-0.752,-0.931 -1.164,-1.969 -1.236,-3.115l0,-4.405c-2.578,3.223 -5.891,5.73 -9.938,7.52c-4.047,1.791 -8.291,2.686 -12.731,2.686c-3.51,0 -6.68,-0.749 -9.509,-2.248c-2.829,-1.499 -5.049,-3.552 -6.661,-6.159c-1.612,-2.606 -2.417,-5.516 -2.417,-8.728Zm38.463,4.6c0.716,-0.928 1.253,-1.819 1.612,-2.675c0.358,-0.856 0.537,-1.64 0.537,-2.354l0,-9.202c-2.579,-0.998 -5.265,-1.747 -8.058,-2.246c-2.794,-0.499 -5.659,-0.748 -8.595,-0.748c-5.587,0 -10.118,1.105 -13.591,3.316c-3.474,2.211 -5.211,5.207 -5.211,8.987c0,2.354 0.609,4.529 1.826,6.526c1.218,1.997 2.919,3.602 5.104,4.815c2.184,1.212 4.709,1.819 7.574,1.819c4.011,0 7.718,-0.767 11.12,-2.3c3.402,-1.533 5.963,-3.513 7.682,-5.938Z" style="fill:#2f2f2f;fill-rule:nonzero;"/><path d="M1196.96,329.293l5.48,0l0,67.756c0,2.593 0.537,4.376 1.611,5.348c1.075,0.973 2.471,1.459 4.191,1.459c1.146,0 2.327,-0.107 3.545,-0.322c1.218,-0.215 2.292,-0.502 3.223,-0.86l1.075,4.405c-1.218,0.43 -2.722,0.824 -4.513,1.182c-1.791,0.358 -3.33,0.537 -4.62,0.537c-3.008,0 -5.425,-0.918 -7.252,-2.754c-1.826,-1.837 -2.74,-4.304 -2.74,-7.4l0,-69.351Z" style="fill:#2f2f2f;fill-rule:nonzero;"/></g><g id="v1"><path d="M293.269,190.846l88.354,0" style="fill:none;stroke:#fcc922;stroke-width:21.87px;"/><path d="M232.626,264.742l102.812,-250.913l106.828,250.913" style="fill:none;stroke:#fcc922;stroke-width:21.87px;"/><path d="M878.316,264.407l0,-253.47l109.49,253.47l109.187,-253.47l0,253.47" style="fill:none;stroke:#fcc922;stroke-width:21.87px;"/><path d="M746.606,245.522l27.016,24.897" style="fill:none;stroke:#fcc922;stroke-width:21.87px;"/><path d="M682.024,187.688l43.739,38.944" style="fill:none;stroke:#fcc922;stroke-width:21.87px;"/><path d="M293.269,190.846l88.354,0" style="fill:none;stroke:#fcc922;stroke-width:21.87px;"/><path d="M10.938,14.941l0,249.801" style="fill:none;stroke:#fcc922;stroke-width:21.87px;"/><path d="M44.673,14.941c0,0 114.047,-15.675 118.073,70.683c3.708,79.555 -118.073,65.061 -118.073,65.061" style="fill:none;stroke:#fcc922;stroke-width:21.87px;"/><path d="M232.626,264.742l102.812,-250.913l106.828,250.913" style="fill:none;stroke:#fcc922;stroke-width:21.87px;"/><path d="M1252.11,190.846l88.354,0" style="fill:none;stroke:#fcc922;stroke-width:21.87px;"/><path d="M1191.47,264.742l102.812,-250.913l106.828,250.913" style="fill:none;stroke:#fcc922;stroke-width:21.87px;"/><path d="M1401.11,264.742l95.511,-0.335l0,-253.47l182.492,253.805l0,-253.805" style="fill:none;stroke:#fcc922;stroke-width:21.87px;"/><ellipse cx="639.547" cy="139.301" rx="121.664" ry="125.472" style="fill:none;stroke:#fcc922;stroke-width:21.88px;"/></g><g id="Command-Line" serif:id="Command Line"><g id="Frame"><path d="M2120.05,30.641c0,-6.495 -2.58,-12.725 -7.173,-17.317c-4.593,-4.593 -10.822,-7.173 -17.317,-7.173c-62.401,0 -226.498,0 -284.057,0c-11.214,0 -20.305,9.09 -20.305,20.304c0,11.239 0,22.957 0,22.957l328.852,0l0,-18.771Z" style="fill:#2f2f2f;"/><path d="M2120.05,29.017c0,-12.629 -10.238,-22.866 -22.866,-22.866c-60.253,0 -222.867,0 -283.119,0c-6.065,0 -11.881,2.409 -16.169,6.697c-4.288,4.288 -6.698,10.104 -6.698,16.169l0,223.323c0,6.064 2.41,11.88 6.698,16.169c4.288,4.288 10.104,6.697 16.169,6.697c60.252,0 222.866,0 283.119,0c12.628,0 22.866,-10.238 22.866,-22.866c0,-50.794 0,-172.53 0,-223.323Z" style="fill:none;stroke:#2f2f2f;stroke-width:6.25px;"/></g><g id="Command"><path d="M1859.16,125.655c-0.942,-0.781 -1.514,-1.919 -1.579,-3.14c-0.066,-1.222 0.382,-2.415 1.235,-3.291c0.588,-0.604 1.195,-1.228 1.768,-1.817c1.598,-1.643 4.192,-1.777 5.951,-0.308c8.953,7.473 34.642,28.92 43.25,36.106c0.706,0.589 1.114,1.46 1.114,2.379c0,0.919 -0.408,1.791 -1.114,2.38c-8.612,7.19 -34.324,28.655 -43.264,36.118c-1.753,1.463 -4.337,1.336 -5.937,-0.294c-0.56,-0.57 -1.152,-1.173 -1.726,-1.758c-0.861,-0.877 -1.315,-2.075 -1.25,-3.303c0.065,-1.227 0.642,-2.37 1.59,-3.152c9.888,-8.146 36.226,-29.844 36.226,-29.844c0,0 -26.406,-21.9 -36.264,-30.076Z" style="fill:#2f2f2f;fill-rule:nonzero;"/><path d="M1989.58,193.449c0,-1.65 -1.338,-2.988 -2.988,-2.988c-11.213,0 -50.717,0 -61.93,0c-1.65,0 -2.988,1.338 -2.988,2.988c0,0.055 0,0.111 0,0.167c0,2.261 0.899,4.429 2.497,6.028c1.599,1.598 3.767,2.497 6.028,2.497c13.044,0 37.812,0 50.856,0c2.261,0 4.429,-0.899 6.028,-2.497c1.599,-1.599 2.497,-3.767 2.497,-6.028c0,-0.056 0,-0.112 0,-0.167Z" style="fill:#2f2f2f;"/></g><g id="Gear"><path d="M2011.87,139.831l-4.282,-9.492l8.821,-8.543l9.349,4.585l4.732,-2.007l3.527,-9.798l12.28,0l3.527,9.798l5.738,2.338l9.495,-4.274l8.535,8.829l-4.592,9.345l2.002,4.733l9.795,3.536l-0.011,12.28l-9.801,3.518l-2.316,5.685l4.283,9.492l-8.821,8.542l-9.35,-4.584l-4.731,2.007l-3.527,9.798l-12.28,0l-3.527,-9.798l-5.738,-2.338l-9.496,4.274l-8.535,-8.829l4.593,-9.345l-2.003,-4.733l-9.794,-3.537l0.011,-12.279l9.801,-3.518l2.315,-5.685Z" style="fill:none;stroke:#2f2f2f;stroke-width:6.25px;"/><circle cx="2040.27" cy="155.097" r="20.016" style="fill:none;stroke:#2f2f2f;stroke-width:6.25px;"/></g></g></g></svg>