<?xml version="1.0" encoding="UTF-8" standalone="no"?>
<!DOCTYPE svg PUBLIC "-//W3C//DTD SVG 1.1//EN" "http://www.w3.org/Graphics/SVG/1.1/DTD/svg11.dtd">
<svg width="100%" height="100%" viewBox="0 0 1100 97" version="1.1" xmlns="http://www.w3.org/2000/svg" xmlns:xlink="http://www.w3.org/1999/xlink" xml:space="preserve" style="fill-rule:evenodd;clip-rule:evenodd;stroke-linecap:round;stroke-linejoin:round;stroke-miterlimit:1.5;">
    <g transform="matrix(1,0,0,1,-62.2025,-66.9271)">
        <g id="paqman_v8_coding" transform="matrix(1,0,0,1,31.4502,18.1287)">
            <g transform="matrix(2.19066,0,0,2.19066,-19.2276,-933.774)">
                <text x="345.769px" y="489.194px" style="font-family:'Raleway-Light', 'Raleway';font-weight:300;font-size:15.694px;fill:rgb(47,47,47);">Par<tspan x="369.153px " y="489.194px ">a</tspan>met<tspan x="405.893px 415.043px 420.018px " y="489.194px 489.194px 489.194px ">er </tspan>Query<tspan x="467.618px " y="489.194px "> </tspan>Manual</text>
            </g>
            <g id="v1" transform="matrix(1.6076,0,0,1.6076,-414.089,-611.659)">
                <g transform="matrix(1,0,0,1,0.559596,0)">
                    <path d="M334.529,448.824L352.116,448.824" style="fill:none;stroke:rgb(252,210,34);stroke-width:4.35px;"/>
                </g>
                <path d="M323.017,463.533L343.482,413.588L364.747,463.533" style="fill:none;stroke:rgb(252,210,34);stroke-width:4.35px;"/>
                <path d="M451.545,463.467L451.545,413.012L473.339,463.467L495.074,413.012L495.074,463.467" style="fill:none;stroke:rgb(252,210,34);stroke-width:4.35px;"/>
                <g transform="matrix(1.30781,0,0,1.35752,-127.621,-166.978)">
                    <path d="M422.803,461.641L426.915,465.292" style="fill:none;stroke:rgb(252,210,34);stroke-width:3.27px;"/>
                </g>
                <g transform="matrix(1.02745,0,0,0.989509,-8.46506,4.08012)">
                    <path d="M409.693,448.824L418.167,456.658" style="fill:none;stroke:rgb(252,210,34);stroke-width:4.32px;"/>
                </g>
                <g transform="matrix(1,0,0,1,0.559596,0)">
                    <path d="M334.529,448.824L352.116,448.824" style="fill:none;stroke:rgb(252,210,34);stroke-width:4.35px;"/>
                </g>
                <path d="M278.889,413.809L278.889,463.533" style="fill:none;stroke:rgb(252,210,34);stroke-width:4.35px;"/>
                <path d="M285.604,413.809C285.604,413.809 308.306,410.689 309.107,427.879C309.845,443.715 285.604,440.83 285.604,440.83" style="fill:none;stroke:rgb(252,210,34);stroke-width:4.35px;"/>
                <path d="M323.017,463.533L343.482,413.588L364.747,463.533" style="fill:none;stroke:rgb(252,210,34);stroke-width:4.35px;"/>
                <g transform="matrix(1,0,0,1,191.422,0)">
                    <path d="M334.529,448.824L352.116,448.824" style="fill:none;stroke:rgb(252,210,34);stroke-width:4.35px;"/>
                </g>
                <g transform="matrix(1,0,0,1,190.862,0)">
                    <path d="M323.017,463.533L343.482,413.588L364.747,463.533" style="fill:none;stroke:rgb(252,210,34);stroke-width:4.35px;"/>
                </g>
                <path d="M555.609,463.533L574.621,463.467L574.621,413.012L610.947,463.533L610.947,413.012" style="fill:none;stroke:rgb(252,210,34);stroke-width:4.35px;"/>
                <g transform="matrix(1.04926,0,0,1.0821,-24.9113,-33.9556)">
                    <circle cx="408.791" cy="436.669" r="23.081" style="fill:none;stroke:rgb(252,210,34);stroke-width:4.09px;"/>
                </g>
            </g>
            <g id="Command-Line" transform="matrix(1,0,0,1,0.61415,0.837754)">
                <g id="Frame">
                    <g transform="matrix(1.002,0,0,1,2.46771,-0.424642)">
                        <path d="M704.675,58.19C704.675,56.112 703.851,54.118 702.384,52.649C700.918,51.179 698.928,50.353 696.854,50.353C676.926,50.353 624.52,50.353 606.137,50.353C602.556,50.353 599.653,53.262 599.653,56.851C599.653,60.447 599.653,64.197 599.653,64.197L704.675,64.197L704.675,58.19Z" style="fill:rgb(47,47,47);"/>
                    </g>
                    <g transform="matrix(0.835904,0,0,0.872535,128.602,8.06491)">
                        <path d="M693.803,56.366C693.803,51.734 689.884,47.98 685.05,47.98C661.984,47.98 599.732,47.98 576.666,47.98C574.345,47.98 572.118,48.863 570.477,50.436C568.835,52.009 567.913,54.142 567.913,56.366L567.913,138.269C567.913,140.493 568.835,142.626 570.477,144.199C572.118,145.771 574.345,146.655 576.666,146.655C599.732,146.655 661.984,146.655 685.05,146.655C689.884,146.655 693.803,142.9 693.803,138.269C693.803,119.641 693.803,74.994 693.803,56.366Z" style="fill:none;stroke:rgb(47,47,47);stroke-width:2.34px;"/>
                    </g>
                </g>
                <g id="Command" transform="matrix(1,0,0,1,3.87973,-0.424642)">
                    <g transform="matrix(48,0,0,48,615.123,110.946)">
                        <path d="M0.126,-0.466C0.12,-0.471 0.116,-0.478 0.116,-0.487C0.115,-0.495 0.118,-0.503 0.124,-0.509C0.128,-0.513 0.132,-0.517 0.136,-0.521C0.147,-0.532 0.164,-0.532 0.176,-0.523C0.235,-0.473 0.407,-0.33 0.464,-0.282C0.469,-0.278 0.471,-0.272 0.471,-0.266C0.471,-0.26 0.469,-0.254 0.464,-0.25C0.406,-0.202 0.235,-0.059 0.175,-0.009C0.164,0 0.147,-0.001 0.136,-0.011C0.132,-0.015 0.128,-0.019 0.124,-0.023C0.119,-0.029 0.116,-0.037 0.116,-0.045C0.116,-0.053 0.12,-0.061 0.127,-0.066C0.193,-0.12 0.368,-0.265 0.368,-0.265C0.368,-0.265 0.192,-0.411 0.126,-0.466Z" style="fill:rgb(47,47,47);fill-rule:nonzero;"/>
                    </g>
                    <g transform="matrix(1,0,0,1,4.09571,1.06832)">
                        <path d="M658.828,109.22C658.828,108.692 658.4,108.264 657.872,108.264C654.284,108.264 641.643,108.264 638.054,108.264C637.526,108.264 637.098,108.692 637.098,109.22C637.098,109.238 637.098,109.256 637.098,109.274C637.098,109.997 637.386,110.691 637.897,111.203C638.409,111.715 639.103,112.002 639.826,112.002C644,112.002 651.926,112.002 656.1,112.002C656.824,112.002 657.517,111.715 658.029,111.203C658.541,110.691 658.828,109.997 658.828,109.274C658.828,109.256 658.828,109.238 658.828,109.22Z" style="fill:rgb(47,47,47);"/>
                    </g>
                </g>
                <g id="Gear" transform="matrix(1,0,0,1,3.55026,-0.424642)">
                    <g transform="matrix(1,0,0,1,29.9296,-35.0265)">
                        <path d="M640.455,128.158L639.085,125.12L641.908,122.387L644.899,123.854L646.413,123.211L647.542,120.076L651.472,120.076L652.6,123.211L654.437,123.959L657.475,122.592L660.206,125.417L658.737,128.408L659.378,129.922L662.512,131.054L662.508,134.983L659.372,136.109L658.631,137.928L660.001,140.965L657.179,143.699L654.187,142.232L652.673,142.874L651.544,146.01L647.614,146.01L646.486,142.874L644.65,142.126L641.611,143.494L638.88,140.669L640.35,137.678L639.709,136.164L636.574,135.032L636.578,131.103L639.714,129.977L640.455,128.158Z" style="fill:none;stroke:rgb(47,47,47);stroke-width:2px;"/>
                    </g>
                    <g transform="matrix(1,0,0,1,-4.62433,10.57)">
                        <circle cx="684.097" cy="87.446" r="6.405" style="fill:none;stroke:rgb(47,47,47);stroke-width:2px;"/>
                    </g>
                </g>
            </g>
        </g>
    </g>
</svg>
